{
    "asset": {
        "version": "2.0",
        "generator": "Open Asset Import Library (assimp v5.4.0)"
    },
    "extensionsUsed": [
        "KHR_materials_volume",
        "FB_ngon_encoding"
    ],
    "accessors": [
        {
            "bufferView": 0,
            "byteOffset": 0,
            "componentType": 5126,
            "count": 36463,
            "type": "VEC3",
            "max": [
                90.98738861083984,
                64.72061920166016,
                105.80044555664063
            ],
            "min": [
                -90.98738861083984,
                -0.0000019073486328125,
                -105.16009521484375
            ]
        },
        {
            "bufferView": 1,
            "byteOffset": 0,
            "componentType": 5126,
            "count": 36463,
            "type": "VEC3",
            "max": [
                1.0,
                1.0,
                1.0
            ],
            "min": [
                -1.0,
                -1.0,
                -1.0
            ]
        },
        {
            "bufferView": 2,
            "byteOffset": 0,
            "componentType": 5126,
            "count": 36463,
            "type": "VEC2",
            "max": [
                0.9340686798095703,
                0.7977586984634399
            ],
            "min": [
                0.000493236817419529,
                0.0005176067352294922
            ]
        },
        {
            "bufferView": 3,
            "byteOffset": 0,
            "componentType": 5126,
            "count": 36463,
            "type": "VEC4",
            "max": [
                1.0,
                1.0,
                1.0,
                1.0
            ],
            "min": [
                1.0,
                1.0,
                1.0,
                1.0
            ]
        },
        {
            "bufferView": 4,
            "byteOffset": 0,
            "componentType": 5125,
            "count": 139257,
            "type": "SCALAR",
            "max": [
                36462
            ],
            "min": [
                0
            ]
        }
    ],
    "buffers": [
        {
            "byteLength": 2307252,
            "uri": "airplane_0.bin"
        }
    ],
    "bufferViews": [
        {
            "buffer": 0,
            "byteOffset": 0,
            "byteLength": 437556,
            "target": 34962
        },
        {
            "buffer": 0,
            "byteOffset": 437556,
            "byteLength": 437556,
            "target": 34962
        },
        {
            "buffer": 0,
            "byteOffset": 875112,
            "byteLength": 291704,
            "target": 34962
        },
        {
            "buffer": 0,
            "byteOffset": 1166816,
            "byteLength": 583408,
            "target": 34962
        },
        {
            "buffer": 0,
            "byteOffset": 1750224,
            "byteLength": 557028,
            "target": 34963
        }
    ],
    "images": [
        {
            "uri": "textures/image_0.png"
        }
    ],
    "materials": [
        {
            "name": "53",
            "pbrMetallicRoughness": {
                "baseColorTexture": {
                    "index": 0
                },
                "metallicFactor": 0.0
            },
            "alphaCutoff": 0.10000000149011612,
            "alphaMode": "MASK",
            "doubleSided": true
        }
    ],
    "meshes": [
        {
            "name": "meshes[0]",
            "primitives": [
                {
                    "mode": 4,
                    "material": 0,
                    "indices": 4,
                    "attributes": {
                        "POSITION": 0,
                        "NORMAL": 1,
                        "TEXCOORD_0": 2,
                        "COLOR_0": 3
                    }
                }
            ]
        }
    ],
    "nodes": [
        {
            "name": "airplane",
            "children": [
                1
            ]
        },
        {
            "name": "root",
            "children": [
                2
            ],
            "extras": {
                "name": "root"
            }
        },
        {
            "name": "node_id5",
            "matrix": [
                0.0028135771863162518,
                0.0,
                0.0,
                0.0,
                0.0,
                0.0028135771863162518,
                0.0,
                0.0,
                0.0,
                0.0,
                0.0028135771863162518,
                0.0,
                9.315478450844239e-7,
                -0.09104828536510468,
                0.29587602615356445,
                1.0
            ],
            "mesh": 0,
            "extras": {
                "name": "node_id5"
            }
        }
    ],
    "samplers": [
        {
            "magFilter": 9729,
            "minFilter": 9985
        }
    ],
    "scenes": [
        {
            "nodes": [
                0
            ]
        }
    ],
    "textures": [
        {
            "source": 0,
            "sampler": 0
        }
    ],
    "scene": 0
}